<svg width="100%" viewBox="0 0 680 240" xmlns="http://www.w3.org/2000/svg" role="img">
<title>Rivulet Bin logo</title>
<desc>Minimalist owl icon with a rounded head, wings and beak, amber eyes, on a dark card, next to the wordmark "Rivulet Bin".</desc>
<defs>
<linearGradient id="darkBg" x1="0" y1="0" x2="0" y2="1">
<stop offset="0" stop-color="#211a2e"/>
<stop offset="1" stop-color="#0c0910"/>
</linearGradient>
</defs>

<rect x="4" y="4" width="672" height="232" rx="24" fill="url(#darkBg)"/>

<path d="M120 196 C82 196 66 172 66 140 C66 108 82 84 120 84 C158 84 174 108 174 140 C174 172 158 196 120 196 Z" fill="#352a44"/>

<path d="M66 130 C52 138 48 158 58 176 C64 186 74 190 82 186 C70 172 66 150 66 130 Z" fill="#2b2238"/>
<path d="M174 130 C188 138 192 158 182 176 C176 186 166 190 158 186 C170 172 174 150 174 130 Z" fill="#2b2238"/>

<circle cx="120" cy="132" r="52" fill="none" stroke="#241c31" stroke-width="10" stroke-opacity="0.5"/>

<circle cx="102" cy="128" r="23" fill="#241c31"/>
<circle cx="138" cy="128" r="23" fill="#241c31"/>
<circle cx="102" cy="128" r="15" fill="#caa155"/>
<circle cx="138" cy="128" r="15" fill="#caa155"/>
<circle cx="102" cy="128" r="6" fill="#120e17"/>
<circle cx="138" cy="128" r="6" fill="#120e17"/>
<circle cx="98" cy="123" r="2" fill="#f2e2bd" fill-opacity="0.9"/>
<circle cx="134" cy="123" r="2" fill="#f2e2bd" fill-opacity="0.9"/>

<path d="M120 148 Q108 154 111 166 Q120 176 129 166 Q132 154 120 148 Z" fill="#caa155"/>

<path d="M90 78 Q94 66 104 62 Q96 72 98 82 Z" fill="#3d3252"/>
<path d="M150 78 Q146 66 136 62 Q144 72 142 82 Z" fill="#3d3252"/>

<text x="230" y="118" font-family="Inter, -apple-system, BlinkMacSystemFont, 'Segoe UI', sans-serif" font-size="44" font-weight="600" fill="#f4f1ea">Rivulet <tspan fill="#caa155">Bin</tspan></text>
<text x="232" y="148" font-family="Inter, -apple-system, BlinkMacSystemFont, 'Segoe UI', sans-serif" font-size="16" fill="#a79fb0">Create pastes, publish notes, shorten links</text>
</svg>
